<svg width="1600" height="1000" viewBox="0 0 1600 1000" fill="none" xmlns="http://www.w3.org/2000/svg">
  <rect width="1600" height="1000" fill="#f3efe4"/>
  <path d="M0 678C248 594 452 575 692 612C958 653 1115 800 1600 624V1000H0V678Z" fill="#ddd4c1"/>
  <path d="M0 724C270 644 488 622 728 664C1008 713 1174 792 1600 658" fill="#cec1a9"/>
  <path d="M86 696C368 618 604 617 858 665C1100 710 1257 748 1514 684" stroke="#dca900" stroke-width="5"/>
  <path d="M196 527H1150C1215 527 1274 562 1305 619L1326 658H242L196 527Z" fill="#fbfaf5"/>
  <path d="M302 553H850C894 553 935 576 957 615L982 658H352L302 553Z" fill="#1d1b16"/>
  <circle cx="462" cy="666" r="74" fill="#f3efe4" stroke="#1d1b16" stroke-width="20"/>
  <circle cx="1090" cy="666" r="74" fill="#f3efe4" stroke="#1d1b16" stroke-width="20"/>
  <path d="M186 511L335 423H978L1162 511H186Z" fill="#edc949"/>
  <path d="M414 459H936L1028 504H340L414 459Z" fill="#1d1b16"/>
  <path d="M1210 214C1284 164 1398 180 1458 238C1499 278 1504 335 1470 374C1420 431 1306 402 1250 348C1204 303 1175 238 1210 214Z" fill="#fbfaf5" opacity=".8"/>
  <g opacity=".55" stroke="#dca900" stroke-linecap="round">
    <path d="M116 172H468"/>
    <path d="M946 172H1424"/>
    <path d="M828 226H1510"/>
    <path d="M92 250H580"/>
  </g>
</svg>
